# xmcd
#
# Track frame offsets:
#	150
#	17993
#	34504
#	50768
#	74909
#	88421
#	104596
#	122354
#	145112
#	159622
#	177137
#
# Disc length: 2611 seconds
#
# Revision: 0
# Processed by: cddbd v1.5.2PL0 Copyright (c) Steve Scherf et al.
# Submitted via: dBpowerAMP V4.0
#
DISCID=9e0a310b
DTITLE=Sadýk Karan - TANIDIK
DYEAR=2009
DGENRE=
TTITLE0=Sadýk Karan - Dost Kazýgý
TTITLE1=Sadýk Karan - Tanýdýk
TTITLE2=Sadýk Karan - Tövbeliyim
TTITLE3=Sadýk Karan - Bana Kalan
TTITLE4=Sadýk Karan - Madara
TTITLE5=Sadýk Karan - Hay Allah
TTITLE6=Sadýk Karan - Dost Kazýgý (Emirhan Cengiz Versiyonu)
TTITLE7=Sadýk Karan - Aman Remix (Burak Yeter Versiyonu)
TTITLE8=Sadýk Karan - Madara Remix (Emirhan Cengiz Versiyonu)
TTITLE9=Sadýk Karan - Aman Remix (Gürsel Çelik Versiyonu)
TTITLE10=Sadýk Karan - Dost Kazýgý (Burak Yeter Versiyonu)
EXTD=sdfsdf
EXTT0=
EXTT1=
EXTT2=
EXTT3=
EXTT4=
EXTT5=
EXTT6=
EXTT7=
EXTT8=
EXTT9=
EXTT10=
PLAYORDER=
